<svg xmlns="http://www.w3.org/2000/svg" xmlns:xlink="http://www.w3.org/1999/xlink" width="104" zoomAndPan="magnify" viewBox="0 0 78 74.999997" height="100" preserveAspectRatio="xMidYMid meet" version="1.0"><defs><clipPath id="764bf5ae07"><path d="M 4 0 L 74 0 L 74 74 L 4 74 Z M 4 0 " clip-rule="nonzero"/></clipPath><clipPath id="55c55cf14f"><path d="M 0 4.402344 L 74.027344 -0.0351562 L 78.28125 70.910156 L 4.253906 75.347656 Z M 0 4.402344 " clip-rule="nonzero"/></clipPath><clipPath id="d327dac77a"><path d="M 0 4.402344 L 74.027344 -0.0351562 L 78.28125 70.910156 L 4.253906 75.347656 Z M 0 4.402344 " clip-rule="nonzero"/></clipPath><clipPath id="aede0dd880"><path d="M 47.546875 58.855469 L 54.40625 58.855469 L 54.40625 65.714844 L 47.546875 65.714844 Z M 47.546875 58.855469 " clip-rule="nonzero"/></clipPath><clipPath id="c09c6d23ec"><path d="M 50.976562 58.855469 C 49.082031 58.855469 47.546875 60.390625 47.546875 62.285156 C 47.546875 64.179688 49.082031 65.714844 50.976562 65.714844 C 52.871094 65.714844 54.40625 64.179688 54.40625 62.285156 C 54.40625 60.390625 52.871094 58.855469 50.976562 58.855469 Z M 50.976562 58.855469 " clip-rule="nonzero"/></clipPath></defs><g clip-path="url(#764bf5ae07)"><g clip-path="url(#55c55cf14f)"><g clip-path="url(#d327dac77a)"><path fill="#ff3131" d="M 56.289062 55.875 L 52.503906 52.519531 C 51.785156 51.878906 51.71875 50.78125 52.359375 50.058594 L 56.695312 45.167969 C 57.332031 44.449219 57.269531 43.347656 56.546875 42.707031 C 55.824219 42.070312 54.726562 42.136719 54.085938 42.855469 L 46.335938 51.59375 C 45.539062 52.496094 44.160156 52.578125 43.261719 51.777344 C 42.363281 50.980469 42.277344 49.605469 43.078125 48.703125 L 56.03125 34.101562 C 56.671875 33.378906 56.605469 32.277344 55.882812 31.640625 C 55.160156 31 54.0625 31.066406 53.421875 31.785156 L 25.675781 63.070312 C 24.878906 63.96875 23.503906 64.050781 22.605469 63.253906 C 21.703125 62.453125 21.621094 61.078125 22.417969 60.179688 L 44.960938 34.761719 C 45.601562 34.042969 45.535156 32.941406 44.8125 32.300781 C 44.09375 31.664062 42.992188 31.730469 42.351562 32.449219 L 33.5625 42.359375 C 32.921875 43.082031 31.824219 43.148438 31.101562 42.507812 L 30.449219 41.929688 C 29.726562 41.289062 29.660156 40.191406 30.300781 39.46875 L 44.292969 23.691406 C 44.933594 22.96875 44.867188 21.871094 44.144531 21.230469 C 43.425781 20.589844 42.324219 20.65625 41.683594 21.378906 L 8.71875 58.558594 C 7.921875 59.457031 6.542969 59.539062 5.644531 58.742188 C 4.746094 57.945312 4.664062 56.566406 5.460938 55.667969 L 33.226562 24.359375 C 33.867188 23.640625 33.800781 22.539062 33.078125 21.898438 C 32.359375 21.257812 31.257812 21.324219 30.617188 22.046875 L 26.285156 26.933594 C 25.648438 27.65625 24.546875 27.722656 23.824219 27.082031 L 20.039062 23.726562 C 19.074219 22.867188 19.347656 21.289062 20.546875 20.804688 L 70.824219 0.628906 C 72.15625 0.09375 73.527344 1.308594 73.15625 2.699219 L 59.128906 55.023438 C 58.792969 56.273438 57.257812 56.734375 56.289062 55.875 Z M 27.558594 45.851562 C 26.660156 45.054688 25.28125 45.136719 24.484375 46.035156 L 4.6875 68.359375 C 3.886719 69.257812 3.96875 70.636719 4.871094 71.433594 C 5.769531 72.230469 7.144531 72.148438 7.945312 71.25 L 27.742188 48.925781 C 28.539062 48.027344 28.457031 46.648438 27.558594 45.851562 Z M 40.445312 54.953125 C 39.546875 54.15625 38.171875 54.238281 37.371094 55.136719 L 24.503906 69.648438 C 23.707031 70.546875 23.789062 71.921875 24.6875 72.722656 C 25.585938 73.519531 26.964844 73.4375 27.761719 72.535156 L 40.632812 58.027344 C 41.429688 57.125 41.347656 55.75 40.445312 54.953125 Z M 21.347656 64.589844 C 20.46875 63.8125 19.125 63.890625 18.347656 64.769531 C 17.570312 65.644531 17.652344 66.988281 18.527344 67.765625 C 19.40625 68.542969 20.746094 68.464844 21.527344 67.585938 C 22.304688 66.710938 22.222656 65.367188 21.347656 64.589844 Z M 21.347656 64.589844 " fill-opacity="1" fill-rule="nonzero"/></g></g></g><g clip-path="url(#aede0dd880)"><g clip-path="url(#c09c6d23ec)"><path fill="#ff3131" d="M 47.546875 58.855469 L 54.40625 58.855469 L 54.40625 65.714844 L 47.546875 65.714844 Z M 47.546875 58.855469 " fill-opacity="1" fill-rule="nonzero"/></g></g></svg>