<svg xmlns="http://www.w3.org/2000/svg" xmlns:xlink="http://www.w3.org/1999/xlink" width="351" zoomAndPan="magnify" viewBox="0 0 263.25 74.249996" height="99" preserveAspectRatio="xMidYMid meet" version="1.0"><defs><g/><clipPath id="e77910fcec"><path d="M 5 0 L 73 0 L 73 72 L 5 72 Z M 5 0 " clip-rule="nonzero"/></clipPath><clipPath id="cca6cffa7d"><path d="M 0.945312 4.324219 L 72.839844 0.015625 L 76.96875 68.941406 L 5.078125 73.25 Z M 0.945312 4.324219 " clip-rule="nonzero"/></clipPath><clipPath id="6a8fd84c2e"><path d="M 0.945312 4.324219 L 72.839844 0.015625 L 76.96875 68.941406 L 5.078125 73.25 Z M 0.945312 4.324219 " clip-rule="nonzero"/></clipPath></defs><g clip-path="url(#e77910fcec)"><g clip-path="url(#cca6cffa7d)"><g clip-path="url(#6a8fd84c2e)"><path fill="#ff3131" d="M 56.21875 54.871094 L 52.503906 51.574219 C 51.796875 50.945312 51.730469 49.867188 52.359375 49.160156 L 56.617188 44.359375 C 57.246094 43.648438 57.179688 42.570312 56.472656 41.941406 C 55.761719 41.3125 54.683594 41.378906 54.054688 42.085938 L 46.445312 50.667969 C 45.660156 51.550781 44.308594 51.632812 43.425781 50.847656 C 42.542969 50.0625 42.460938 48.710938 43.246094 47.828125 L 55.964844 33.488281 C 56.59375 32.777344 56.527344 31.699219 55.820312 31.070312 C 55.113281 30.441406 54.03125 30.507812 53.402344 31.214844 L 26.160156 61.933594 C 25.375 62.816406 24.023438 62.898438 23.140625 62.113281 C 22.257812 61.332031 22.175781 59.980469 22.960938 59.097656 L 45.09375 34.140625 C 45.722656 33.429688 45.65625 32.351562 44.949219 31.722656 C 44.242188 31.09375 43.160156 31.160156 42.535156 31.867188 L 33.902344 41.597656 C 33.273438 42.308594 32.191406 42.371094 31.484375 41.746094 L 30.84375 41.175781 C 30.136719 40.546875 30.070312 39.46875 30.699219 38.757812 L 44.441406 23.265625 C 45.066406 22.558594 45.003906 21.476562 44.296875 20.847656 C 43.585938 20.222656 42.507812 20.285156 41.878906 20.996094 L 9.503906 57.503906 C 8.722656 58.386719 7.371094 58.46875 6.488281 57.6875 C 5.605469 56.902344 5.523438 55.550781 6.304688 54.667969 L 33.574219 23.921875 C 34.203125 23.214844 34.136719 22.136719 33.429688 21.507812 C 32.71875 20.878906 31.640625 20.945312 31.011719 21.652344 L 26.757812 26.453125 C 26.128906 27.160156 25.046875 27.226562 24.339844 26.597656 L 20.625 23.300781 C 19.671875 22.457031 19.941406 20.90625 21.121094 20.433594 L 70.492188 0.621094 C 71.800781 0.09375 73.148438 1.289062 72.78125 2.652344 L 59.007812 54.035156 C 58.675781 55.261719 57.171875 55.714844 56.21875 54.871094 Z M 28.007812 45.027344 C 27.121094 44.242188 25.769531 44.324219 24.988281 45.207031 L 5.546875 67.128906 C 4.761719 68.011719 4.84375 69.363281 5.726562 70.148438 C 6.609375 70.929688 7.960938 70.851562 8.746094 69.964844 L 28.1875 48.046875 C 28.972656 47.164062 28.890625 45.8125 28.007812 45.027344 Z M 40.664062 53.964844 C 39.777344 53.179688 38.425781 53.261719 37.644531 54.144531 L 25.007812 68.394531 C 24.222656 69.277344 24.304688 70.628906 25.1875 71.414062 C 26.070312 72.195312 27.421875 72.117188 28.207031 71.230469 L 40.84375 56.984375 C 41.625 56.097656 41.546875 54.746094 40.664062 53.964844 Z M 21.90625 63.425781 C 21.042969 62.664062 19.726562 62.742188 18.960938 63.605469 C 18.199219 64.464844 18.277344 65.78125 19.140625 66.546875 C 20 67.3125 21.316406 67.230469 22.082031 66.371094 C 22.847656 65.507812 22.765625 64.191406 21.90625 63.425781 Z M 21.90625 63.425781 " fill-opacity="1" fill-rule="nonzero"/></g></g></g><g fill="#000000" fill-opacity="1"><g transform="translate(71.591105, 44.534225)"><g><path d="M 1.5 -26.328125 L 8.046875 -26.328125 C 10.128906 -26.328125 11.675781 -25.773438 12.6875 -24.671875 C 13.707031 -23.566406 14.21875 -21.945312 14.21875 -19.8125 L 14.21875 -6.5 C 14.21875 -4.375 13.707031 -2.757812 12.6875 -1.65625 C 11.675781 -0.550781 10.128906 0 8.046875 0 L 1.5 0 Z M 5.640625 -22.5625 L 5.640625 -3.765625 L 7.96875 -3.765625 C 8.625 -3.765625 9.140625 -3.953125 9.515625 -4.328125 C 9.890625 -4.703125 10.078125 -5.363281 10.078125 -6.3125 L 10.078125 -20.015625 C 10.078125 -20.960938 9.890625 -21.625 9.515625 -22 C 9.140625 -22.375 8.625 -22.5625 7.96875 -22.5625 Z M 5.640625 -22.5625 "/></g></g></g><g fill="#000000" fill-opacity="1"><g transform="translate(86.936935, 44.534225)"><g><path d="M 5.640625 -15.234375 L 11.328125 -15.234375 L 11.328125 -11.46875 L 5.640625 -11.46875 L 5.640625 -3.765625 L 12.78125 -3.765625 L 12.78125 0 L 1.5 0 L 1.5 -26.328125 L 12.78125 -26.328125 L 12.78125 -22.5625 L 5.640625 -22.5625 Z M 5.640625 -15.234375 "/></g></g></g><g fill="#000000" fill-opacity="1"><g transform="translate(100.778266, 44.534225)"><g><path d="M 5.640625 -15.234375 L 11.328125 -15.234375 L 11.328125 -11.46875 L 5.640625 -11.46875 L 5.640625 -3.765625 L 12.78125 -3.765625 L 12.78125 0 L 1.5 0 L 1.5 -26.328125 L 12.78125 -26.328125 L 12.78125 -22.5625 L 5.640625 -22.5625 Z M 5.640625 -15.234375 "/></g></g></g><g fill="#000000" fill-opacity="1"><g transform="translate(114.619596, 44.534225)"><g><path d="M 7.59375 -26.328125 C 9.675781 -26.328125 11.222656 -25.773438 12.234375 -24.671875 C 13.253906 -23.566406 13.765625 -21.945312 13.765625 -19.8125 L 13.765625 -16.390625 C 13.765625 -14.265625 13.253906 -12.648438 12.234375 -11.546875 C 11.222656 -10.441406 9.675781 -9.890625 7.59375 -9.890625 L 5.640625 -9.890625 L 5.640625 0 L 1.5 0 L 1.5 -26.328125 Z M 5.640625 -22.5625 L 5.640625 -13.65625 L 7.59375 -13.65625 C 8.25 -13.65625 8.75 -13.828125 9.09375 -14.171875 C 9.445312 -14.523438 9.625 -15.179688 9.625 -16.140625 L 9.625 -20.078125 C 9.625 -21.035156 9.445312 -21.6875 9.09375 -22.03125 C 8.75 -22.382812 8.25 -22.5625 7.59375 -22.5625 Z M 5.640625 -22.5625 "/></g></g></g><g fill="#ff3131" fill-opacity="1"><g transform="translate(135.850515, 44.534225)"><g><path d="M 5.640625 -14.625 L 10.984375 -14.625 L 10.984375 -10.875 L 5.640625 -10.875 L 5.640625 0 L 1.5 0 L 1.5 -26.328125 L 12.453125 -26.328125 L 12.453125 -22.5625 L 5.640625 -22.5625 Z M 5.640625 -14.625 "/></g></g></g><g fill="#ff3131" fill-opacity="1"><g transform="translate(148.789156, 44.534225)"><g><path d="M 1.5 -26.328125 L 5.640625 -26.328125 L 5.640625 -3.765625 L 12.453125 -3.765625 L 12.453125 0 L 1.5 0 Z M 1.5 -26.328125 "/></g></g></g><g fill="#ff3131" fill-opacity="1"><g transform="translate(161.614955, 44.534225)"><g><path d="M 1.5 -26.328125 L 5.640625 -26.328125 L 5.640625 0 L 1.5 0 Z M 1.5 -26.328125 "/></g></g></g><g fill="#ff3131" fill-opacity="1"><g transform="translate(168.76129, 44.534225)"><g><path d="M 15.3125 -26.328125 L 10.984375 -13.546875 L 15.609375 0 L 11.25 0 L 7.859375 -10.421875 L 4.4375 0 L 0.5625 0 L 5.1875 -13.546875 L 0.859375 -26.328125 L 5.15625 -26.328125 L 8.28125 -16.625 L 11.46875 -26.328125 Z M 15.3125 -26.328125 "/></g></g></g><g fill="#000000" fill-opacity="1"><g transform="translate(73.818605, 56.909239)"><g><path d="M 4.859375 -8.921875 C 4.878906 -8.984375 4.929688 -9.015625 5.015625 -9.015625 L 5.671875 -9.015625 C 5.765625 -9.015625 5.8125 -8.972656 5.8125 -8.890625 L 5.8125 -0.125 C 5.8125 -0.0390625 5.765625 0 5.671875 0 L 5.015625 0 C 4.929688 0 4.890625 -0.0390625 4.890625 -0.125 L 4.890625 -7.03125 C 4.890625 -7.050781 4.882812 -7.0625 4.875 -7.0625 C 4.863281 -7.0625 4.847656 -7.054688 4.828125 -7.046875 L 3.484375 -4.265625 C 3.460938 -4.203125 3.421875 -4.171875 3.359375 -4.171875 C 3.285156 -4.171875 3.238281 -4.203125 3.21875 -4.265625 L 1.875 -7.03125 C 1.863281 -7.050781 1.847656 -7.0625 1.828125 -7.0625 C 1.816406 -7.0625 1.8125 -7.046875 1.8125 -7.015625 L 1.8125 -0.125 C 1.8125 -0.0390625 1.769531 0 1.6875 0 L 1.03125 0 C 0.945312 0 0.90625 -0.0390625 0.90625 -0.125 L 0.90625 -8.890625 C 0.90625 -8.972656 0.945312 -9.015625 1.03125 -9.015625 L 1.703125 -9.015625 C 1.773438 -9.015625 1.828125 -8.984375 1.859375 -8.921875 L 3.328125 -5.953125 C 3.328125 -5.929688 3.335938 -5.921875 3.359375 -5.921875 C 3.378906 -5.921875 3.394531 -5.929688 3.40625 -5.953125 Z M 4.859375 -8.921875 "/></g></g></g><g fill="#000000" fill-opacity="1"><g transform="translate(80.521815, 56.909239)"><g><path d="M 2.671875 0.109375 C 2.046875 0.109375 1.550781 -0.0703125 1.1875 -0.4375 C 0.820312 -0.800781 0.640625 -1.273438 0.640625 -1.859375 L 0.640625 -4.640625 C 0.640625 -5.222656 0.820312 -5.695312 1.1875 -6.0625 C 1.5625 -6.4375 2.054688 -6.625 2.671875 -6.625 C 3.285156 -6.625 3.773438 -6.4375 4.140625 -6.0625 C 4.515625 -5.695312 4.703125 -5.222656 4.703125 -4.640625 L 4.703125 -1.859375 C 4.703125 -1.273438 4.515625 -0.800781 4.140625 -0.4375 C 3.773438 -0.0703125 3.285156 0.109375 2.671875 0.109375 Z M 2.671875 -0.703125 C 2.992188 -0.703125 3.257812 -0.8125 3.46875 -1.03125 C 3.675781 -1.257812 3.78125 -1.5625 3.78125 -1.9375 L 3.78125 -4.578125 C 3.78125 -4.953125 3.675781 -5.25 3.46875 -5.46875 C 3.257812 -5.695312 2.992188 -5.8125 2.671875 -5.8125 C 2.335938 -5.8125 2.066406 -5.695312 1.859375 -5.46875 C 1.660156 -5.25 1.5625 -4.953125 1.5625 -4.578125 L 1.5625 -1.9375 C 1.5625 -1.5625 1.660156 -1.257812 1.859375 -1.03125 C 2.066406 -0.8125 2.335938 -0.703125 2.671875 -0.703125 Z M 2.671875 -0.703125 "/></g></g></g><g fill="#000000" fill-opacity="1"><g transform="translate(85.861229, 56.909239)"><g><path d="M 2.0625 0 C 1.976562 0 1.929688 -0.0351562 1.921875 -0.109375 L 0.328125 -6.375 L 0.3125 -6.421875 C 0.3125 -6.484375 0.347656 -6.515625 0.421875 -6.515625 L 1.171875 -6.515625 C 1.242188 -6.515625 1.289062 -6.476562 1.3125 -6.40625 L 2.421875 -1.515625 C 2.429688 -1.492188 2.4375 -1.484375 2.4375 -1.484375 C 2.445312 -1.484375 2.457031 -1.492188 2.46875 -1.515625 L 3.5625 -6.40625 C 3.582031 -6.476562 3.628906 -6.515625 3.703125 -6.515625 L 4.453125 -6.5 C 4.492188 -6.5 4.523438 -6.484375 4.546875 -6.453125 C 4.566406 -6.429688 4.570312 -6.398438 4.5625 -6.359375 L 2.96875 -0.109375 C 2.96875 -0.0351562 2.921875 0 2.828125 0 Z M 2.0625 0 "/></g></g></g><g fill="#000000" fill-opacity="1"><g transform="translate(90.737465, 56.909239)"><g><path d="M 1.34375 -7.703125 C 1.125 -7.703125 0.945312 -7.769531 0.8125 -7.90625 C 0.6875 -8.039062 0.625 -8.210938 0.625 -8.421875 C 0.625 -8.628906 0.6875 -8.800781 0.8125 -8.9375 C 0.945312 -9.070312 1.125 -9.140625 1.34375 -9.140625 C 1.539062 -9.140625 1.707031 -9.070312 1.84375 -8.9375 C 1.976562 -8.800781 2.046875 -8.628906 2.046875 -8.421875 C 2.046875 -8.210938 1.976562 -8.039062 1.84375 -7.90625 C 1.707031 -7.769531 1.539062 -7.703125 1.34375 -7.703125 Z M 1.015625 0 C 0.929688 0 0.890625 -0.0390625 0.890625 -0.125 L 0.890625 -6.390625 C 0.890625 -6.472656 0.929688 -6.515625 1.015625 -6.515625 L 1.671875 -6.515625 C 1.753906 -6.515625 1.796875 -6.472656 1.796875 -6.390625 L 1.796875 -0.125 C 1.796875 -0.0390625 1.753906 0 1.671875 0 Z M 1.015625 0 "/></g></g></g><g fill="#000000" fill-opacity="1"><g transform="translate(93.413608, 56.909239)"><g><path d="M 4.671875 -3.03125 C 4.671875 -2.945312 4.628906 -2.90625 4.546875 -2.90625 L 1.609375 -2.90625 C 1.578125 -2.90625 1.5625 -2.890625 1.5625 -2.859375 L 1.5625 -1.921875 C 1.5625 -1.554688 1.660156 -1.257812 1.859375 -1.03125 C 2.054688 -0.800781 2.320312 -0.6875 2.65625 -0.6875 C 2.925781 -0.6875 3.15625 -0.769531 3.34375 -0.9375 C 3.539062 -1.113281 3.671875 -1.332031 3.734375 -1.59375 C 3.753906 -1.675781 3.800781 -1.71875 3.875 -1.71875 L 4.515625 -1.6875 C 4.554688 -1.6875 4.585938 -1.671875 4.609375 -1.640625 C 4.628906 -1.617188 4.640625 -1.585938 4.640625 -1.546875 C 4.566406 -1.035156 4.351562 -0.628906 4 -0.328125 C 3.65625 -0.0351562 3.207031 0.109375 2.65625 0.109375 C 2.039062 0.109375 1.550781 -0.0703125 1.1875 -0.4375 C 0.820312 -0.800781 0.640625 -1.273438 0.640625 -1.859375 L 0.640625 -4.640625 C 0.640625 -5.222656 0.820312 -5.695312 1.1875 -6.0625 C 1.550781 -6.4375 2.039062 -6.625 2.65625 -6.625 C 3.269531 -6.625 3.757812 -6.4375 4.125 -6.0625 C 4.488281 -5.695312 4.671875 -5.222656 4.671875 -4.640625 Z M 2.65625 -5.8125 C 2.320312 -5.8125 2.054688 -5.695312 1.859375 -5.46875 C 1.660156 -5.25 1.5625 -4.953125 1.5625 -4.578125 L 1.5625 -3.71875 C 1.5625 -3.6875 1.578125 -3.671875 1.609375 -3.671875 L 3.71875 -3.671875 C 3.75 -3.671875 3.765625 -3.6875 3.765625 -3.71875 L 3.765625 -4.578125 C 3.765625 -4.953125 3.660156 -5.25 3.453125 -5.46875 C 3.253906 -5.695312 2.988281 -5.8125 2.65625 -5.8125 Z M 2.65625 -5.8125 "/></g></g></g><g fill="#000000" fill-opacity="1"><g transform="translate(98.650093, 56.909239)"><g><path d="M 2.484375 0.0625 C 1.890625 0.0625 1.414062 -0.0859375 1.0625 -0.390625 C 0.707031 -0.691406 0.53125 -1.097656 0.53125 -1.609375 L 0.53125 -1.703125 C 0.53125 -1.785156 0.570312 -1.828125 0.65625 -1.828125 L 1.28125 -1.828125 C 1.363281 -1.828125 1.40625 -1.785156 1.40625 -1.703125 L 1.40625 -1.625 C 1.40625 -1.34375 1.503906 -1.109375 1.703125 -0.921875 C 1.910156 -0.734375 2.175781 -0.640625 2.5 -0.640625 C 2.8125 -0.640625 3.0625 -0.734375 3.25 -0.921875 C 3.4375 -1.109375 3.53125 -1.347656 3.53125 -1.640625 C 3.53125 -1.867188 3.46875 -2.054688 3.34375 -2.203125 C 3.226562 -2.359375 3.085938 -2.476562 2.921875 -2.5625 C 2.765625 -2.644531 2.53125 -2.753906 2.21875 -2.890625 C 1.882812 -3.035156 1.609375 -3.171875 1.390625 -3.296875 C 1.171875 -3.429688 0.976562 -3.617188 0.8125 -3.859375 C 0.65625 -4.109375 0.578125 -4.421875 0.578125 -4.796875 C 0.578125 -5.347656 0.742188 -5.78125 1.078125 -6.09375 C 1.421875 -6.414062 1.878906 -6.578125 2.453125 -6.578125 C 3.035156 -6.578125 3.5 -6.410156 3.84375 -6.078125 C 4.1875 -5.753906 4.359375 -5.328125 4.359375 -4.796875 L 4.359375 -4.75 C 4.359375 -4.664062 4.316406 -4.625 4.234375 -4.625 L 3.640625 -4.625 C 3.554688 -4.625 3.515625 -4.664062 3.515625 -4.75 L 3.515625 -4.828125 C 3.515625 -5.117188 3.414062 -5.359375 3.21875 -5.546875 C 3.03125 -5.734375 2.78125 -5.828125 2.46875 -5.828125 C 2.164062 -5.828125 1.921875 -5.726562 1.734375 -5.53125 C 1.546875 -5.34375 1.453125 -5.109375 1.453125 -4.828125 C 1.453125 -4.617188 1.507812 -4.441406 1.625 -4.296875 C 1.738281 -4.160156 1.875 -4.046875 2.03125 -3.953125 C 2.195312 -3.867188 2.425781 -3.757812 2.71875 -3.625 C 3.070312 -3.476562 3.359375 -3.332031 3.578125 -3.1875 C 3.804688 -3.050781 4.003906 -2.859375 4.171875 -2.609375 C 4.347656 -2.359375 4.4375 -2.050781 4.4375 -1.6875 C 4.4375 -1.15625 4.257812 -0.726562 3.90625 -0.40625 C 3.5625 -0.09375 3.085938 0.0625 2.484375 0.0625 Z M 2.484375 0.0625 "/></g></g></g><g fill="#000000" fill-opacity="1"><g transform="translate(103.461999, 56.909239)"><g/></g></g><g fill="#000000" fill-opacity="1"><g transform="translate(106.035212, 56.909239)"><g><path d="M 4.875 -9.015625 C 4.96875 -9.015625 5.015625 -8.972656 5.015625 -8.890625 L 5.015625 -8.34375 C 5.015625 -8.257812 4.96875 -8.21875 4.875 -8.21875 L 3.1875 -8.21875 C 3.144531 -8.21875 3.125 -8.195312 3.125 -8.15625 L 3.125 -0.125 C 3.125 -0.0390625 3.082031 0 3 0 L 2.34375 0 C 2.257812 0 2.21875 -0.0390625 2.21875 -0.125 L 2.21875 -8.15625 C 2.21875 -8.195312 2.195312 -8.21875 2.15625 -8.21875 L 0.5625 -8.21875 C 0.476562 -8.21875 0.4375 -8.257812 0.4375 -8.34375 L 0.4375 -8.890625 C 0.4375 -8.972656 0.476562 -9.015625 0.5625 -9.015625 Z M 4.875 -9.015625 "/></g></g></g><g fill="#000000" fill-opacity="1"><g transform="translate(111.477556, 56.909239)"><g><path d="M 3.109375 -6.609375 C 3.628906 -6.609375 4.03125 -6.425781 4.3125 -6.0625 C 4.601562 -5.695312 4.75 -5.195312 4.75 -4.5625 L 4.75 -0.125 C 4.75 -0.0390625 4.707031 0 4.625 0 L 3.96875 0 C 3.882812 0 3.84375 -0.0390625 3.84375 -0.125 L 3.84375 -4.484375 C 3.84375 -4.898438 3.75 -5.222656 3.5625 -5.453125 C 3.375 -5.691406 3.117188 -5.8125 2.796875 -5.8125 C 2.453125 -5.8125 2.179688 -5.6875 1.984375 -5.4375 C 1.796875 -5.1875 1.703125 -4.847656 1.703125 -4.421875 L 1.703125 -0.125 C 1.703125 -0.0390625 1.660156 0 1.578125 0 L 0.921875 0 C 0.828125 0 0.78125 -0.0390625 0.78125 -0.125 L 0.78125 -8.890625 C 0.78125 -8.972656 0.828125 -9.015625 0.921875 -9.015625 L 1.578125 -9.015625 C 1.660156 -9.015625 1.703125 -8.972656 1.703125 -8.890625 L 1.703125 -5.96875 C 1.703125 -5.957031 1.707031 -5.945312 1.71875 -5.9375 C 1.738281 -5.925781 1.753906 -5.9375 1.765625 -5.96875 C 1.921875 -6.175781 2.113281 -6.332031 2.34375 -6.4375 C 2.582031 -6.550781 2.835938 -6.609375 3.109375 -6.609375 Z M 3.109375 -6.609375 "/></g></g></g><g fill="#000000" fill-opacity="1"><g transform="translate(116.93276, 56.909239)"><g><path d="M 2.6875 -6.625 C 3.289062 -6.625 3.769531 -6.425781 4.125 -6.03125 C 4.488281 -5.644531 4.671875 -5.125 4.671875 -4.46875 L 4.671875 -0.125 C 4.671875 -0.0390625 4.628906 0 4.546875 0 L 3.890625 0 C 3.804688 0 3.765625 -0.0390625 3.765625 -0.125 L 3.765625 -0.515625 C 3.765625 -0.535156 3.753906 -0.546875 3.734375 -0.546875 C 3.722656 -0.546875 3.707031 -0.539062 3.6875 -0.53125 C 3.375 -0.101562 2.898438 0.109375 2.265625 0.109375 C 1.796875 0.109375 1.382812 -0.0234375 1.03125 -0.296875 C 0.6875 -0.566406 0.515625 -1.046875 0.515625 -1.734375 C 0.515625 -2.460938 0.722656 -2.992188 1.140625 -3.328125 C 1.566406 -3.671875 2.125 -3.84375 2.8125 -3.84375 L 3.703125 -3.84375 C 3.742188 -3.84375 3.765625 -3.863281 3.765625 -3.90625 L 3.765625 -4.40625 C 3.765625 -4.832031 3.664062 -5.171875 3.46875 -5.421875 C 3.269531 -5.679688 3.003906 -5.8125 2.671875 -5.8125 C 2.410156 -5.8125 2.1875 -5.722656 2 -5.546875 C 1.8125 -5.378906 1.703125 -5.164062 1.671875 -4.90625 C 1.671875 -4.820312 1.628906 -4.78125 1.546875 -4.78125 L 0.828125 -4.796875 C 0.785156 -4.796875 0.75 -4.804688 0.71875 -4.828125 C 0.695312 -4.847656 0.691406 -4.878906 0.703125 -4.921875 C 0.742188 -5.421875 0.945312 -5.828125 1.3125 -6.140625 C 1.6875 -6.460938 2.144531 -6.625 2.6875 -6.625 Z M 2.453125 -0.6875 C 2.804688 -0.6875 3.113281 -0.800781 3.375 -1.03125 C 3.632812 -1.257812 3.765625 -1.578125 3.765625 -1.984375 L 3.765625 -3.0625 C 3.765625 -3.09375 3.742188 -3.109375 3.703125 -3.109375 L 2.796875 -3.109375 C 2.378906 -3.109375 2.050781 -3 1.8125 -2.78125 C 1.570312 -2.5625 1.453125 -2.238281 1.453125 -1.8125 C 1.453125 -1.4375 1.546875 -1.15625 1.734375 -0.96875 C 1.921875 -0.78125 2.160156 -0.6875 2.453125 -0.6875 Z M 2.453125 -0.6875 "/></g></g></g><g fill="#000000" fill-opacity="1"><g transform="translate(122.246445, 56.909239)"><g><path d="M 3.078125 -5.96875 C 3.078125 -5.875 3.035156 -5.828125 2.953125 -5.828125 L 1.96875 -5.828125 C 1.9375 -5.828125 1.921875 -5.8125 1.921875 -5.78125 L 1.921875 -1.84375 C 1.921875 -1.445312 1.988281 -1.171875 2.125 -1.015625 C 2.257812 -0.867188 2.46875 -0.800781 2.75 -0.8125 L 2.890625 -0.8125 C 2.972656 -0.8125 3.015625 -0.769531 3.015625 -0.6875 L 3.015625 -0.125 C 3.015625 -0.0390625 2.972656 0 2.890625 0 L 2.5625 0 C 2.050781 0 1.664062 -0.109375 1.40625 -0.328125 C 1.144531 -0.546875 1.015625 -0.960938 1.015625 -1.578125 L 1.015625 -5.78125 C 1.015625 -5.8125 1 -5.828125 0.96875 -5.828125 L 0.46875 -5.828125 C 0.375 -5.828125 0.328125 -5.875 0.328125 -5.96875 L 0.328125 -6.390625 C 0.328125 -6.472656 0.375 -6.515625 0.46875 -6.515625 L 0.96875 -6.515625 C 1 -6.515625 1.015625 -6.53125 1.015625 -6.5625 L 1.015625 -8.015625 C 1.015625 -8.097656 1.054688 -8.140625 1.140625 -8.140625 L 1.796875 -8.140625 C 1.878906 -8.140625 1.921875 -8.097656 1.921875 -8.015625 L 1.921875 -6.5625 C 1.921875 -6.53125 1.9375 -6.515625 1.96875 -6.515625 L 2.953125 -6.515625 C 3.035156 -6.515625 3.078125 -6.472656 3.078125 -6.390625 Z M 3.078125 -5.96875 "/></g></g></g><g fill="#000000" fill-opacity="1"><g transform="translate(125.681686, 56.909239)"><g/></g></g><g fill="#000000" fill-opacity="1"><g transform="translate(128.254898, 56.909239)"><g><path d="M 4.859375 -8.921875 C 4.878906 -8.984375 4.929688 -9.015625 5.015625 -9.015625 L 5.671875 -9.015625 C 5.765625 -9.015625 5.8125 -8.972656 5.8125 -8.890625 L 5.8125 -0.125 C 5.8125 -0.0390625 5.765625 0 5.671875 0 L 5.015625 0 C 4.929688 0 4.890625 -0.0390625 4.890625 -0.125 L 4.890625 -7.03125 C 4.890625 -7.050781 4.882812 -7.0625 4.875 -7.0625 C 4.863281 -7.0625 4.847656 -7.054688 4.828125 -7.046875 L 3.484375 -4.265625 C 3.460938 -4.203125 3.421875 -4.171875 3.359375 -4.171875 C 3.285156 -4.171875 3.238281 -4.203125 3.21875 -4.265625 L 1.875 -7.03125 C 1.863281 -7.050781 1.847656 -7.0625 1.828125 -7.0625 C 1.816406 -7.0625 1.8125 -7.046875 1.8125 -7.015625 L 1.8125 -0.125 C 1.8125 -0.0390625 1.769531 0 1.6875 0 L 1.03125 0 C 0.945312 0 0.90625 -0.0390625 0.90625 -0.125 L 0.90625 -8.890625 C 0.90625 -8.972656 0.945312 -9.015625 1.03125 -9.015625 L 1.703125 -9.015625 C 1.773438 -9.015625 1.828125 -8.984375 1.859375 -8.921875 L 3.328125 -5.953125 C 3.328125 -5.929688 3.335938 -5.921875 3.359375 -5.921875 C 3.378906 -5.921875 3.394531 -5.929688 3.40625 -5.953125 Z M 4.859375 -8.921875 "/></g></g></g><g fill="#000000" fill-opacity="1"><g transform="translate(134.958108, 56.909239)"><g><path d="M 2.671875 0.109375 C 2.046875 0.109375 1.550781 -0.0703125 1.1875 -0.4375 C 0.820312 -0.800781 0.640625 -1.273438 0.640625 -1.859375 L 0.640625 -4.640625 C 0.640625 -5.222656 0.820312 -5.695312 1.1875 -6.0625 C 1.5625 -6.4375 2.054688 -6.625 2.671875 -6.625 C 3.285156 -6.625 3.773438 -6.4375 4.140625 -6.0625 C 4.515625 -5.695312 4.703125 -5.222656 4.703125 -4.640625 L 4.703125 -1.859375 C 4.703125 -1.273438 4.515625 -0.800781 4.140625 -0.4375 C 3.773438 -0.0703125 3.285156 0.109375 2.671875 0.109375 Z M 2.671875 -0.703125 C 2.992188 -0.703125 3.257812 -0.8125 3.46875 -1.03125 C 3.675781 -1.257812 3.78125 -1.5625 3.78125 -1.9375 L 3.78125 -4.578125 C 3.78125 -4.953125 3.675781 -5.25 3.46875 -5.46875 C 3.257812 -5.695312 2.992188 -5.8125 2.671875 -5.8125 C 2.335938 -5.8125 2.066406 -5.695312 1.859375 -5.46875 C 1.660156 -5.25 1.5625 -4.953125 1.5625 -4.578125 L 1.5625 -1.9375 C 1.5625 -1.5625 1.660156 -1.257812 1.859375 -1.03125 C 2.066406 -0.8125 2.335938 -0.703125 2.671875 -0.703125 Z M 2.671875 -0.703125 "/></g></g></g><g fill="#000000" fill-opacity="1"><g transform="translate(140.297523, 56.909239)"><g><path d="M 2.0625 0 C 1.976562 0 1.929688 -0.0351562 1.921875 -0.109375 L 0.328125 -6.375 L 0.3125 -6.421875 C 0.3125 -6.484375 0.347656 -6.515625 0.421875 -6.515625 L 1.171875 -6.515625 C 1.242188 -6.515625 1.289062 -6.476562 1.3125 -6.40625 L 2.421875 -1.515625 C 2.429688 -1.492188 2.4375 -1.484375 2.4375 -1.484375 C 2.445312 -1.484375 2.457031 -1.492188 2.46875 -1.515625 L 3.5625 -6.40625 C 3.582031 -6.476562 3.628906 -6.515625 3.703125 -6.515625 L 4.453125 -6.5 C 4.492188 -6.5 4.523438 -6.484375 4.546875 -6.453125 C 4.566406 -6.429688 4.570312 -6.398438 4.5625 -6.359375 L 2.96875 -0.109375 C 2.96875 -0.0351562 2.921875 0 2.828125 0 Z M 2.0625 0 "/></g></g></g><g fill="#000000" fill-opacity="1"><g transform="translate(145.173759, 56.909239)"><g><path d="M 4.671875 -3.03125 C 4.671875 -2.945312 4.628906 -2.90625 4.546875 -2.90625 L 1.609375 -2.90625 C 1.578125 -2.90625 1.5625 -2.890625 1.5625 -2.859375 L 1.5625 -1.921875 C 1.5625 -1.554688 1.660156 -1.257812 1.859375 -1.03125 C 2.054688 -0.800781 2.320312 -0.6875 2.65625 -0.6875 C 2.925781 -0.6875 3.15625 -0.769531 3.34375 -0.9375 C 3.539062 -1.113281 3.671875 -1.332031 3.734375 -1.59375 C 3.753906 -1.675781 3.800781 -1.71875 3.875 -1.71875 L 4.515625 -1.6875 C 4.554688 -1.6875 4.585938 -1.671875 4.609375 -1.640625 C 4.628906 -1.617188 4.640625 -1.585938 4.640625 -1.546875 C 4.566406 -1.035156 4.351562 -0.628906 4 -0.328125 C 3.65625 -0.0351562 3.207031 0.109375 2.65625 0.109375 C 2.039062 0.109375 1.550781 -0.0703125 1.1875 -0.4375 C 0.820312 -0.800781 0.640625 -1.273438 0.640625 -1.859375 L 0.640625 -4.640625 C 0.640625 -5.222656 0.820312 -5.695312 1.1875 -6.0625 C 1.550781 -6.4375 2.039062 -6.625 2.65625 -6.625 C 3.269531 -6.625 3.757812 -6.4375 4.125 -6.0625 C 4.488281 -5.695312 4.671875 -5.222656 4.671875 -4.640625 Z M 2.65625 -5.8125 C 2.320312 -5.8125 2.054688 -5.695312 1.859375 -5.46875 C 1.660156 -5.25 1.5625 -4.953125 1.5625 -4.578125 L 1.5625 -3.71875 C 1.5625 -3.6875 1.578125 -3.671875 1.609375 -3.671875 L 3.71875 -3.671875 C 3.75 -3.671875 3.765625 -3.6875 3.765625 -3.71875 L 3.765625 -4.578125 C 3.765625 -4.953125 3.660156 -5.25 3.453125 -5.46875 C 3.253906 -5.695312 2.988281 -5.8125 2.65625 -5.8125 Z M 2.65625 -5.8125 "/></g></g></g><g fill="#000000" fill-opacity="1"><g transform="translate(150.410244, 56.909239)"><g/></g></g><g fill="#000000" fill-opacity="1"><g transform="translate(152.983456, 56.909239)"><g><path d="M 2.40625 -0.015625 C 2.320312 -0.015625 2.28125 -0.0546875 2.28125 -0.140625 L 2.28125 -3.984375 C 2.28125 -4.023438 2.273438 -4.050781 2.265625 -4.0625 L 0.46875 -8.859375 L 0.46875 -8.90625 C 0.46875 -8.976562 0.503906 -9.015625 0.578125 -9.015625 L 1.28125 -9.015625 C 1.351562 -9.015625 1.398438 -8.976562 1.421875 -8.90625 L 2.6875 -5.140625 C 2.695312 -5.117188 2.707031 -5.109375 2.71875 -5.109375 C 2.738281 -5.109375 2.753906 -5.117188 2.765625 -5.140625 L 4.03125 -8.90625 C 4.050781 -8.976562 4.101562 -9.015625 4.1875 -9.015625 L 4.875 -9.015625 C 4.914062 -9.015625 4.945312 -9 4.96875 -8.96875 C 5 -8.9375 5.003906 -8.898438 4.984375 -8.859375 L 3.203125 -4.0625 C 3.191406 -4.050781 3.1875 -4.023438 3.1875 -3.984375 L 3.1875 -0.140625 C 3.1875 -0.0546875 3.144531 -0.015625 3.0625 -0.015625 Z M 2.40625 -0.015625 "/></g></g></g><g fill="#000000" fill-opacity="1"><g transform="translate(158.43866, 56.909239)"><g><path d="M 2.671875 0.109375 C 2.046875 0.109375 1.550781 -0.0703125 1.1875 -0.4375 C 0.820312 -0.800781 0.640625 -1.273438 0.640625 -1.859375 L 0.640625 -4.640625 C 0.640625 -5.222656 0.820312 -5.695312 1.1875 -6.0625 C 1.5625 -6.4375 2.054688 -6.625 2.671875 -6.625 C 3.285156 -6.625 3.773438 -6.4375 4.140625 -6.0625 C 4.515625 -5.695312 4.703125 -5.222656 4.703125 -4.640625 L 4.703125 -1.859375 C 4.703125 -1.273438 4.515625 -0.800781 4.140625 -0.4375 C 3.773438 -0.0703125 3.285156 0.109375 2.671875 0.109375 Z M 2.671875 -0.703125 C 2.992188 -0.703125 3.257812 -0.8125 3.46875 -1.03125 C 3.675781 -1.257812 3.78125 -1.5625 3.78125 -1.9375 L 3.78125 -4.578125 C 3.78125 -4.953125 3.675781 -5.25 3.46875 -5.46875 C 3.257812 -5.695312 2.992188 -5.8125 2.671875 -5.8125 C 2.335938 -5.8125 2.066406 -5.695312 1.859375 -5.46875 C 1.660156 -5.25 1.5625 -4.953125 1.5625 -4.578125 L 1.5625 -1.9375 C 1.5625 -1.5625 1.660156 -1.257812 1.859375 -1.03125 C 2.066406 -0.8125 2.335938 -0.703125 2.671875 -0.703125 Z M 2.671875 -0.703125 "/></g></g></g><g fill="#000000" fill-opacity="1"><g transform="translate(163.778075, 56.909239)"><g><path d="M 3.765625 -6.390625 C 3.765625 -6.472656 3.804688 -6.515625 3.890625 -6.515625 L 4.546875 -6.515625 C 4.628906 -6.515625 4.671875 -6.472656 4.671875 -6.390625 L 4.671875 -0.125 C 4.671875 -0.0390625 4.628906 0 4.546875 0 L 3.890625 0 C 3.804688 0 3.765625 -0.0390625 3.765625 -0.125 L 3.765625 -0.5625 C 3.765625 -0.59375 3.753906 -0.609375 3.734375 -0.609375 C 3.722656 -0.609375 3.707031 -0.597656 3.6875 -0.578125 C 3.425781 -0.128906 3 0.09375 2.40625 0.09375 C 1.894531 0.09375 1.484375 -0.0625 1.171875 -0.375 C 0.867188 -0.6875 0.71875 -1.160156 0.71875 -1.796875 L 0.71875 -6.390625 C 0.71875 -6.472656 0.757812 -6.515625 0.84375 -6.515625 L 1.5 -6.515625 C 1.59375 -6.515625 1.640625 -6.472656 1.640625 -6.390625 L 1.640625 -2.015625 C 1.640625 -1.578125 1.722656 -1.25 1.890625 -1.03125 C 2.066406 -0.8125 2.328125 -0.703125 2.671875 -0.703125 C 3.015625 -0.703125 3.28125 -0.828125 3.46875 -1.078125 C 3.664062 -1.328125 3.765625 -1.664062 3.765625 -2.09375 Z M 3.765625 -6.390625 "/></g></g></g></svg>