<svg xmlns="http://www.w3.org/2000/svg" xmlns:xlink="http://www.w3.org/1999/xlink" width="357" zoomAndPan="magnify" viewBox="0 0 267.75 75.749997" height="101" preserveAspectRatio="xMidYMid meet" version="1.0"><defs><g/><clipPath id="9136d323af"><path d="M 4 0 L 74 0 L 74 74 L 4 74 Z M 4 0 " clip-rule="nonzero"/></clipPath><clipPath id="ddffbd655a"><path d="M 0.316406 4.425781 L 73.90625 0.015625 L 78.136719 70.570312 L 4.546875 74.980469 Z M 0.316406 4.425781 " clip-rule="nonzero"/></clipPath><clipPath id="465cf866eb"><path d="M 0.316406 4.425781 L 73.90625 0.015625 L 78.136719 70.570312 L 4.546875 74.980469 Z M 0.316406 4.425781 " clip-rule="nonzero"/></clipPath></defs><g clip-path="url(#9136d323af)"><g clip-path="url(#ddffbd655a)"><g clip-path="url(#465cf866eb)"><path fill="#ff3131" d="M 56.894531 56.167969 L 53.09375 52.792969 C 52.367188 52.148438 52.300781 51.042969 52.945312 50.320312 L 57.300781 45.40625 C 57.945312 44.679688 57.878906 43.574219 57.152344 42.933594 C 56.429688 42.289062 55.324219 42.355469 54.679688 43.078125 L 46.890625 51.863281 C 46.089844 52.769531 44.703125 52.851562 43.800781 52.046875 C 42.894531 51.246094 42.8125 49.863281 43.617188 48.957031 L 56.636719 34.277344 C 57.277344 33.554688 57.210938 32.449219 56.488281 31.804688 C 55.761719 31.160156 54.65625 31.226562 54.011719 31.953125 L 26.125 63.398438 C 25.324219 64.300781 23.941406 64.382812 23.035156 63.582031 C 22.132812 62.78125 22.046875 61.398438 22.851562 60.492188 L 45.507812 34.945312 C 46.152344 34.21875 46.085938 33.113281 45.359375 32.472656 C 44.636719 31.828125 43.53125 31.894531 42.886719 32.621094 L 34.050781 42.582031 C 33.40625 43.308594 32.300781 43.375 31.578125 42.730469 L 30.921875 42.148438 C 30.195312 41.503906 30.128906 40.398438 30.773438 39.675781 L 44.839844 23.816406 C 45.480469 23.089844 45.414062 21.984375 44.691406 21.339844 C 43.964844 20.699219 42.859375 20.765625 42.214844 21.488281 L 9.078125 58.863281 C 8.277344 59.765625 6.894531 59.851562 5.988281 59.046875 C 5.085938 58.246094 5 56.863281 5.804688 55.957031 L 33.714844 24.488281 C 34.359375 23.761719 34.292969 22.65625 33.566406 22.015625 C 32.839844 21.371094 31.734375 21.4375 31.09375 22.164062 L 26.738281 27.078125 C 26.09375 27.800781 24.988281 27.867188 24.265625 27.226562 L 20.460938 23.851562 C 19.488281 22.988281 19.761719 21.402344 20.96875 20.914062 L 71.503906 0.632812 C 72.84375 0.0976562 74.222656 1.320312 73.851562 2.714844 L 59.75 55.308594 C 59.410156 56.566406 57.871094 57.03125 56.894531 56.167969 Z M 28.015625 46.089844 C 27.113281 45.289062 25.730469 45.371094 24.925781 46.277344 L 5.027344 68.714844 C 4.222656 69.621094 4.304688 71.003906 5.210938 71.804688 C 6.117188 72.605469 7.5 72.523438 8.300781 71.621094 L 28.203125 49.179688 C 29.003906 48.277344 28.921875 46.894531 28.015625 46.089844 Z M 40.972656 55.238281 C 40.066406 54.4375 38.683594 54.519531 37.882812 55.425781 L 24.945312 70.007812 C 24.144531 70.914062 24.226562 72.296875 25.128906 73.097656 C 26.035156 73.902344 27.417969 73.820312 28.21875 72.914062 L 41.15625 58.328125 C 41.957031 57.425781 41.875 56.039062 40.972656 55.238281 Z M 21.773438 64.925781 C 20.890625 64.144531 19.539062 64.222656 18.757812 65.105469 C 17.976562 65.988281 18.058594 67.335938 18.9375 68.117188 C 19.820312 68.902344 21.171875 68.820312 21.953125 67.9375 C 22.734375 67.054688 22.652344 65.707031 21.773438 64.925781 Z M 21.773438 64.925781 " fill-opacity="1" fill-rule="nonzero"/></g></g></g><g fill="#ff3131" fill-opacity="1"><g transform="translate(72.630538, 45.586111)"><g><path d="M 1.546875 -26.953125 L 8.234375 -26.953125 C 10.367188 -26.953125 11.953125 -26.382812 12.984375 -25.25 C 14.023438 -24.125 14.546875 -22.472656 14.546875 -20.296875 L 14.546875 -6.65625 C 14.546875 -4.476562 14.023438 -2.820312 12.984375 -1.6875 C 11.953125 -0.5625 10.367188 0 8.234375 0 L 1.546875 0 Z M 5.78125 -23.09375 L 5.78125 -3.84375 L 8.15625 -3.84375 C 8.820312 -3.84375 9.347656 -4.035156 9.734375 -4.421875 C 10.117188 -4.804688 10.3125 -5.488281 10.3125 -6.46875 L 10.3125 -20.484375 C 10.3125 -21.453125 10.117188 -22.128906 9.734375 -22.515625 C 9.347656 -22.898438 8.820312 -23.09375 8.15625 -23.09375 Z M 5.78125 -23.09375 "/></g></g></g><g fill="#ff3131" fill-opacity="1"><g transform="translate(88.338831, 45.586111)"><g><path d="M 5.78125 -15.59375 L 11.59375 -15.59375 L 11.59375 -11.75 L 5.78125 -11.75 L 5.78125 -3.84375 L 13.09375 -3.84375 L 13.09375 0 L 1.546875 0 L 1.546875 -26.953125 L 13.09375 -26.953125 L 13.09375 -23.09375 L 5.78125 -23.09375 Z M 5.78125 -15.59375 "/></g></g></g><g fill="#ff3131" fill-opacity="1"><g transform="translate(102.50709, 45.586111)"><g><path d="M 5.78125 -15.59375 L 11.59375 -15.59375 L 11.59375 -11.75 L 5.78125 -11.75 L 5.78125 -3.84375 L 13.09375 -3.84375 L 13.09375 0 L 1.546875 0 L 1.546875 -26.953125 L 13.09375 -26.953125 L 13.09375 -23.09375 L 5.78125 -23.09375 Z M 5.78125 -15.59375 "/></g></g></g><g fill="#ff3131" fill-opacity="1"><g transform="translate(116.675348, 45.586111)"><g><path d="M 7.78125 -26.953125 C 9.90625 -26.953125 11.488281 -26.382812 12.53125 -25.25 C 13.570312 -24.125 14.09375 -22.472656 14.09375 -20.296875 L 14.09375 -16.78125 C 14.09375 -14.601562 13.570312 -12.945312 12.53125 -11.8125 C 11.488281 -10.6875 9.90625 -10.125 7.78125 -10.125 L 5.78125 -10.125 L 5.78125 0 L 1.546875 0 L 1.546875 -26.953125 Z M 5.78125 -23.09375 L 5.78125 -13.96875 L 7.78125 -13.96875 C 8.445312 -13.96875 8.957031 -14.144531 9.3125 -14.5 C 9.675781 -14.863281 9.859375 -15.535156 9.859375 -16.515625 L 9.859375 -20.5625 C 9.859375 -21.53125 9.675781 -22.191406 9.3125 -22.546875 C 8.957031 -22.910156 8.445312 -23.09375 7.78125 -23.09375 Z M 5.78125 -23.09375 "/></g></g></g><g fill="#ff3131" fill-opacity="1"><g transform="translate(138.407724, 45.586111)"><g><path d="M 5.78125 -14.96875 L 11.234375 -14.96875 L 11.234375 -11.125 L 5.78125 -11.125 L 5.78125 0 L 1.546875 0 L 1.546875 -26.953125 L 12.75 -26.953125 L 12.75 -23.09375 L 5.78125 -23.09375 Z M 5.78125 -14.96875 "/></g></g></g><g fill="#ff3131" fill-opacity="1"><g transform="translate(151.651972, 45.586111)"><g><path d="M 1.546875 -26.953125 L 5.78125 -26.953125 L 5.78125 -3.84375 L 12.75 -3.84375 L 12.75 0 L 1.546875 0 Z M 1.546875 -26.953125 "/></g></g></g><g fill="#ff3131" fill-opacity="1"><g transform="translate(164.780711, 45.586111)"><g><path d="M 1.546875 -26.953125 L 5.78125 -26.953125 L 5.78125 0 L 1.546875 0 Z M 1.546875 -26.953125 "/></g></g></g><g fill="#ff3131" fill-opacity="1"><g transform="translate(172.095841, 45.586111)"><g><path d="M 15.671875 -26.953125 L 11.234375 -13.859375 L 15.984375 0 L 11.515625 0 L 8.046875 -10.671875 L 4.546875 0 L 0.578125 0 L 5.3125 -13.859375 L 0.890625 -26.953125 L 5.28125 -26.953125 L 8.46875 -17.015625 L 11.75 -26.953125 Z M 15.671875 -26.953125 "/></g></g></g><g fill="#ffffff" fill-opacity="1"><g transform="translate(74.910652, 58.253421)"><g><path d="M 4.96875 -9.125 C 4.988281 -9.1875 5.039062 -9.21875 5.125 -9.21875 L 5.8125 -9.21875 C 5.894531 -9.21875 5.9375 -9.175781 5.9375 -9.09375 L 5.9375 -0.125 C 5.9375 -0.0390625 5.894531 0 5.8125 0 L 5.140625 0 C 5.046875 0 5 -0.0390625 5 -0.125 L 5 -7.1875 C 5 -7.21875 4.992188 -7.234375 4.984375 -7.234375 C 4.972656 -7.234375 4.957031 -7.222656 4.9375 -7.203125 L 3.5625 -4.359375 C 3.539062 -4.296875 3.5 -4.265625 3.4375 -4.265625 C 3.363281 -4.265625 3.316406 -4.296875 3.296875 -4.359375 L 1.921875 -7.1875 C 1.898438 -7.207031 1.882812 -7.21875 1.875 -7.21875 C 1.863281 -7.21875 1.859375 -7.203125 1.859375 -7.171875 L 1.859375 -0.125 C 1.859375 -0.0390625 1.8125 0 1.71875 0 L 1.046875 0 C 0.960938 0 0.921875 -0.0390625 0.921875 -0.125 L 0.921875 -9.09375 C 0.921875 -9.175781 0.960938 -9.21875 1.046875 -9.21875 L 1.734375 -9.21875 C 1.816406 -9.21875 1.867188 -9.1875 1.890625 -9.125 L 3.390625 -6.078125 C 3.398438 -6.066406 3.414062 -6.0625 3.4375 -6.0625 C 3.457031 -6.0625 3.472656 -6.066406 3.484375 -6.078125 Z M 4.96875 -9.125 "/></g></g></g><g fill="#ffffff" fill-opacity="1"><g transform="translate(81.772189, 58.253421)"><g><path d="M 2.734375 0.109375 C 2.097656 0.109375 1.59375 -0.0703125 1.21875 -0.4375 C 0.84375 -0.8125 0.65625 -1.300781 0.65625 -1.90625 L 0.65625 -4.734375 C 0.65625 -5.335938 0.84375 -5.828125 1.21875 -6.203125 C 1.601562 -6.578125 2.109375 -6.765625 2.734375 -6.765625 C 3.359375 -6.765625 3.859375 -6.578125 4.234375 -6.203125 C 4.617188 -5.828125 4.8125 -5.335938 4.8125 -4.734375 L 4.8125 -1.90625 C 4.8125 -1.300781 4.617188 -0.8125 4.234375 -0.4375 C 3.859375 -0.0703125 3.359375 0.109375 2.734375 0.109375 Z M 2.734375 -0.71875 C 3.066406 -0.71875 3.335938 -0.832031 3.546875 -1.0625 C 3.765625 -1.289062 3.875 -1.59375 3.875 -1.96875 L 3.875 -4.6875 C 3.875 -5.0625 3.765625 -5.363281 3.546875 -5.59375 C 3.335938 -5.832031 3.066406 -5.953125 2.734375 -5.953125 C 2.390625 -5.953125 2.113281 -5.832031 1.90625 -5.59375 C 1.695312 -5.363281 1.59375 -5.0625 1.59375 -4.6875 L 1.59375 -1.96875 C 1.59375 -1.59375 1.695312 -1.289062 1.90625 -1.0625 C 2.113281 -0.832031 2.390625 -0.71875 2.734375 -0.71875 Z M 2.734375 -0.71875 "/></g></g></g><g fill="#ffffff" fill-opacity="1"><g transform="translate(87.237719, 58.253421)"><g><path d="M 2.109375 0 C 2.023438 0 1.976562 -0.0390625 1.96875 -0.125 L 0.328125 -6.515625 L 0.3125 -6.578125 C 0.3125 -6.640625 0.351562 -6.671875 0.4375 -6.671875 L 1.203125 -6.671875 C 1.273438 -6.671875 1.320312 -6.628906 1.34375 -6.546875 L 2.46875 -1.546875 C 2.476562 -1.523438 2.488281 -1.515625 2.5 -1.515625 C 2.507812 -1.515625 2.519531 -1.523438 2.53125 -1.546875 L 3.65625 -6.546875 C 3.664062 -6.628906 3.710938 -6.671875 3.796875 -6.671875 L 4.5625 -6.65625 C 4.601562 -6.65625 4.632812 -6.640625 4.65625 -6.609375 C 4.675781 -6.585938 4.675781 -6.550781 4.65625 -6.5 L 3.046875 -0.125 C 3.035156 -0.0390625 2.984375 0 2.890625 0 Z M 2.109375 0 "/></g></g></g><g fill="#ffffff" fill-opacity="1"><g transform="translate(92.22913, 58.253421)"><g><path d="M 1.375 -7.875 C 1.15625 -7.875 0.972656 -7.941406 0.828125 -8.078125 C 0.691406 -8.222656 0.625 -8.398438 0.625 -8.609375 C 0.625 -8.828125 0.691406 -9.003906 0.828125 -9.140625 C 0.972656 -9.285156 1.15625 -9.359375 1.375 -9.359375 C 1.582031 -9.359375 1.753906 -9.285156 1.890625 -9.140625 C 2.023438 -9.003906 2.09375 -8.828125 2.09375 -8.609375 C 2.09375 -8.398438 2.023438 -8.222656 1.890625 -8.078125 C 1.753906 -7.941406 1.582031 -7.875 1.375 -7.875 Z M 1.046875 0 C 0.953125 0 0.90625 -0.0390625 0.90625 -0.125 L 0.90625 -6.53125 C 0.90625 -6.625 0.953125 -6.671875 1.046875 -6.671875 L 1.71875 -6.671875 C 1.800781 -6.671875 1.84375 -6.625 1.84375 -6.53125 L 1.84375 -0.125 C 1.84375 -0.0390625 1.800781 0 1.71875 0 Z M 1.046875 0 "/></g></g></g><g fill="#ffffff" fill-opacity="1"><g transform="translate(94.968483, 58.253421)"><g><path d="M 4.78125 -3.109375 C 4.78125 -3.023438 4.738281 -2.984375 4.65625 -2.984375 L 1.640625 -2.984375 C 1.609375 -2.984375 1.59375 -2.960938 1.59375 -2.921875 L 1.59375 -1.96875 C 1.59375 -1.59375 1.695312 -1.289062 1.90625 -1.0625 C 2.113281 -0.832031 2.382812 -0.71875 2.71875 -0.71875 C 3 -0.71875 3.238281 -0.800781 3.4375 -0.96875 C 3.632812 -1.132812 3.757812 -1.359375 3.8125 -1.640625 C 3.84375 -1.710938 3.894531 -1.75 3.96875 -1.75 L 4.625 -1.71875 C 4.65625 -1.71875 4.679688 -1.703125 4.703125 -1.671875 C 4.734375 -1.648438 4.742188 -1.617188 4.734375 -1.578125 C 4.671875 -1.054688 4.457031 -0.644531 4.09375 -0.34375 C 3.738281 -0.0390625 3.28125 0.109375 2.71875 0.109375 C 2.09375 0.109375 1.59375 -0.0703125 1.21875 -0.4375 C 0.84375 -0.8125 0.65625 -1.300781 0.65625 -1.90625 L 0.65625 -4.75 C 0.65625 -5.351562 0.84375 -5.835938 1.21875 -6.203125 C 1.59375 -6.578125 2.09375 -6.765625 2.71875 -6.765625 C 3.34375 -6.765625 3.84375 -6.578125 4.21875 -6.203125 C 4.59375 -5.835938 4.78125 -5.351562 4.78125 -4.75 Z M 2.71875 -5.953125 C 2.382812 -5.953125 2.113281 -5.832031 1.90625 -5.59375 C 1.695312 -5.363281 1.59375 -5.0625 1.59375 -4.6875 L 1.59375 -3.8125 C 1.59375 -3.769531 1.609375 -3.75 1.640625 -3.75 L 3.8125 -3.75 C 3.84375 -3.75 3.859375 -3.769531 3.859375 -3.8125 L 3.859375 -4.6875 C 3.859375 -5.0625 3.753906 -5.363281 3.546875 -5.59375 C 3.335938 -5.832031 3.0625 -5.953125 2.71875 -5.953125 Z M 2.71875 -5.953125 "/></g></g></g><g fill="#ffffff" fill-opacity="1"><g transform="translate(100.328651, 58.253421)"><g><path d="M 2.546875 0.0625 C 1.941406 0.0625 1.457031 -0.09375 1.09375 -0.40625 C 0.726562 -0.71875 0.546875 -1.128906 0.546875 -1.640625 L 0.546875 -1.734375 C 0.546875 -1.828125 0.585938 -1.875 0.671875 -1.875 L 1.296875 -1.875 C 1.390625 -1.875 1.4375 -1.828125 1.4375 -1.734375 L 1.4375 -1.65625 C 1.4375 -1.375 1.539062 -1.132812 1.75 -0.9375 C 1.957031 -0.75 2.226562 -0.65625 2.5625 -0.65625 C 2.875 -0.65625 3.125 -0.75 3.3125 -0.9375 C 3.507812 -1.132812 3.609375 -1.382812 3.609375 -1.6875 C 3.609375 -1.914062 3.546875 -2.101562 3.421875 -2.25 C 3.296875 -2.40625 3.148438 -2.523438 2.984375 -2.609375 C 2.828125 -2.703125 2.585938 -2.820312 2.265625 -2.96875 C 1.921875 -3.101562 1.632812 -3.238281 1.40625 -3.375 C 1.1875 -3.507812 0.992188 -3.703125 0.828125 -3.953125 C 0.671875 -4.203125 0.59375 -4.519531 0.59375 -4.90625 C 0.59375 -5.46875 0.765625 -5.910156 1.109375 -6.234375 C 1.460938 -6.566406 1.929688 -6.734375 2.515625 -6.734375 C 3.109375 -6.734375 3.582031 -6.566406 3.9375 -6.234375 C 4.289062 -5.898438 4.46875 -5.457031 4.46875 -4.90625 L 4.46875 -4.859375 C 4.46875 -4.773438 4.421875 -4.734375 4.328125 -4.734375 L 3.734375 -4.734375 C 3.640625 -4.734375 3.59375 -4.773438 3.59375 -4.859375 L 3.59375 -4.9375 C 3.59375 -5.238281 3.492188 -5.484375 3.296875 -5.671875 C 3.097656 -5.867188 2.84375 -5.96875 2.53125 -5.96875 C 2.21875 -5.96875 1.960938 -5.867188 1.765625 -5.671875 C 1.578125 -5.472656 1.484375 -5.226562 1.484375 -4.9375 C 1.484375 -4.726562 1.539062 -4.550781 1.65625 -4.40625 C 1.769531 -4.257812 1.910156 -4.140625 2.078125 -4.046875 C 2.242188 -3.953125 2.476562 -3.84375 2.78125 -3.71875 C 3.132812 -3.5625 3.425781 -3.410156 3.65625 -3.265625 C 3.894531 -3.128906 4.101562 -2.929688 4.28125 -2.671875 C 4.457031 -2.421875 4.546875 -2.101562 4.546875 -1.71875 C 4.546875 -1.175781 4.363281 -0.742188 4 -0.421875 C 3.644531 -0.0976562 3.160156 0.0625 2.546875 0.0625 Z M 2.546875 0.0625 "/></g></g></g><g fill="#ffffff" fill-opacity="1"><g transform="translate(105.254213, 58.253421)"><g/></g></g><g fill="#ffffff" fill-opacity="1"><g transform="translate(107.888205, 58.253421)"><g><path d="M 4.984375 -9.21875 C 5.078125 -9.21875 5.125 -9.175781 5.125 -9.09375 L 5.125 -8.53125 C 5.125 -8.445312 5.078125 -8.40625 4.984375 -8.40625 L 3.25 -8.40625 C 3.21875 -8.40625 3.203125 -8.382812 3.203125 -8.34375 L 3.203125 -0.125 C 3.203125 -0.0390625 3.15625 0 3.0625 0 L 2.390625 0 C 2.304688 0 2.265625 -0.0390625 2.265625 -0.125 L 2.265625 -8.34375 C 2.265625 -8.382812 2.25 -8.40625 2.21875 -8.40625 L 0.578125 -8.40625 C 0.492188 -8.40625 0.453125 -8.445312 0.453125 -8.53125 L 0.453125 -9.09375 C 0.453125 -9.175781 0.492188 -9.21875 0.578125 -9.21875 Z M 4.984375 -9.21875 "/></g></g></g><g fill="#ffffff" fill-opacity="1"><g transform="translate(113.459095, 58.253421)"><g><path d="M 3.171875 -6.75 C 3.710938 -6.75 4.128906 -6.566406 4.421875 -6.203125 C 4.710938 -5.835938 4.859375 -5.320312 4.859375 -4.65625 L 4.859375 -0.125 C 4.859375 -0.0390625 4.816406 0 4.734375 0 L 4.0625 0 C 3.96875 0 3.921875 -0.0390625 3.921875 -0.125 L 3.921875 -4.578125 C 3.921875 -5.015625 3.828125 -5.347656 3.640625 -5.578125 C 3.453125 -5.816406 3.191406 -5.9375 2.859375 -5.9375 C 2.503906 -5.9375 2.226562 -5.804688 2.03125 -5.546875 C 1.832031 -5.296875 1.734375 -4.953125 1.734375 -4.515625 L 1.734375 -0.125 C 1.734375 -0.0390625 1.691406 0 1.609375 0 L 0.9375 0 C 0.84375 0 0.796875 -0.0390625 0.796875 -0.125 L 0.796875 -9.09375 C 0.796875 -9.175781 0.84375 -9.21875 0.9375 -9.21875 L 1.609375 -9.21875 C 1.691406 -9.21875 1.734375 -9.175781 1.734375 -9.09375 L 1.734375 -6.109375 C 1.734375 -6.085938 1.742188 -6.070312 1.765625 -6.0625 C 1.785156 -6.0625 1.796875 -6.070312 1.796875 -6.09375 C 1.960938 -6.3125 2.164062 -6.472656 2.40625 -6.578125 C 2.644531 -6.691406 2.898438 -6.75 3.171875 -6.75 Z M 3.171875 -6.75 "/></g></g></g><g fill="#ffffff" fill-opacity="1"><g transform="translate(119.043149, 58.253421)"><g><path d="M 2.75 -6.765625 C 3.363281 -6.765625 3.851562 -6.566406 4.21875 -6.171875 C 4.59375 -5.773438 4.78125 -5.242188 4.78125 -4.578125 L 4.78125 -0.125 C 4.78125 -0.0390625 4.738281 0 4.65625 0 L 3.984375 0 C 3.890625 0 3.84375 -0.0390625 3.84375 -0.125 L 3.84375 -0.53125 C 3.84375 -0.539062 3.835938 -0.546875 3.828125 -0.546875 C 3.816406 -0.554688 3.800781 -0.554688 3.78125 -0.546875 C 3.457031 -0.109375 2.96875 0.109375 2.3125 0.109375 C 1.832031 0.109375 1.414062 -0.0234375 1.0625 -0.296875 C 0.707031 -0.578125 0.53125 -1.070312 0.53125 -1.78125 C 0.53125 -2.519531 0.742188 -3.0625 1.171875 -3.40625 C 1.597656 -3.757812 2.164062 -3.9375 2.875 -3.9375 L 3.796875 -3.9375 C 3.828125 -3.9375 3.84375 -3.953125 3.84375 -3.984375 L 3.84375 -4.5 C 3.84375 -4.9375 3.738281 -5.285156 3.53125 -5.546875 C 3.332031 -5.816406 3.066406 -5.953125 2.734375 -5.953125 C 2.460938 -5.953125 2.234375 -5.863281 2.046875 -5.6875 C 1.859375 -5.507812 1.75 -5.285156 1.71875 -5.015625 C 1.71875 -4.929688 1.671875 -4.890625 1.578125 -4.890625 L 0.84375 -4.90625 C 0.800781 -4.90625 0.769531 -4.914062 0.75 -4.9375 C 0.726562 -4.96875 0.71875 -5 0.71875 -5.03125 C 0.769531 -5.550781 0.984375 -5.96875 1.359375 -6.28125 C 1.734375 -6.601562 2.195312 -6.765625 2.75 -6.765625 Z M 2.515625 -0.71875 C 2.878906 -0.71875 3.191406 -0.832031 3.453125 -1.0625 C 3.710938 -1.289062 3.84375 -1.613281 3.84375 -2.03125 L 3.84375 -3.140625 C 3.84375 -3.171875 3.828125 -3.1875 3.796875 -3.1875 L 2.859375 -3.1875 C 2.429688 -3.1875 2.09375 -3.070312 1.84375 -2.84375 C 1.601562 -2.625 1.484375 -2.296875 1.484375 -1.859375 C 1.484375 -1.472656 1.578125 -1.1875 1.765625 -1 C 1.960938 -0.8125 2.210938 -0.71875 2.515625 -0.71875 Z M 2.515625 -0.71875 "/></g></g></g><g fill="#ffffff" fill-opacity="1"><g transform="translate(124.482342, 58.253421)"><g><path d="M 3.140625 -6.09375 C 3.140625 -6.007812 3.097656 -5.96875 3.015625 -5.96875 L 2.015625 -5.96875 C 1.984375 -5.96875 1.96875 -5.953125 1.96875 -5.921875 L 1.96875 -1.890625 C 1.96875 -1.484375 2.035156 -1.203125 2.171875 -1.046875 C 2.316406 -0.890625 2.53125 -0.816406 2.8125 -0.828125 L 2.953125 -0.828125 C 3.035156 -0.828125 3.078125 -0.785156 3.078125 -0.703125 L 3.078125 -0.125 C 3.078125 -0.0390625 3.035156 0 2.953125 0 L 2.625 0 C 2.101562 0 1.707031 -0.109375 1.4375 -0.328125 C 1.175781 -0.554688 1.046875 -0.984375 1.046875 -1.609375 L 1.046875 -5.921875 C 1.046875 -5.953125 1.023438 -5.96875 0.984375 -5.96875 L 0.46875 -5.96875 C 0.382812 -5.96875 0.34375 -6.007812 0.34375 -6.09375 L 0.34375 -6.53125 C 0.34375 -6.625 0.382812 -6.671875 0.46875 -6.671875 L 0.984375 -6.671875 C 1.023438 -6.671875 1.046875 -6.6875 1.046875 -6.71875 L 1.046875 -8.1875 C 1.046875 -8.28125 1.085938 -8.328125 1.171875 -8.328125 L 1.828125 -8.328125 C 1.921875 -8.328125 1.96875 -8.28125 1.96875 -8.1875 L 1.96875 -6.71875 C 1.96875 -6.6875 1.984375 -6.671875 2.015625 -6.671875 L 3.015625 -6.671875 C 3.097656 -6.671875 3.140625 -6.625 3.140625 -6.53125 Z M 3.140625 -6.09375 "/></g></g></g><g fill="#ffffff" fill-opacity="1"><g transform="translate(130.632713, 58.253421)"><g><path d="M 4.96875 -9.125 C 4.988281 -9.1875 5.039062 -9.21875 5.125 -9.21875 L 5.8125 -9.21875 C 5.894531 -9.21875 5.9375 -9.175781 5.9375 -9.09375 L 5.9375 -0.125 C 5.9375 -0.0390625 5.894531 0 5.8125 0 L 5.140625 0 C 5.046875 0 5 -0.0390625 5 -0.125 L 5 -7.1875 C 5 -7.21875 4.992188 -7.234375 4.984375 -7.234375 C 4.972656 -7.234375 4.957031 -7.222656 4.9375 -7.203125 L 3.5625 -4.359375 C 3.539062 -4.296875 3.5 -4.265625 3.4375 -4.265625 C 3.363281 -4.265625 3.316406 -4.296875 3.296875 -4.359375 L 1.921875 -7.1875 C 1.898438 -7.207031 1.882812 -7.21875 1.875 -7.21875 C 1.863281 -7.21875 1.859375 -7.203125 1.859375 -7.171875 L 1.859375 -0.125 C 1.859375 -0.0390625 1.8125 0 1.71875 0 L 1.046875 0 C 0.960938 0 0.921875 -0.0390625 0.921875 -0.125 L 0.921875 -9.09375 C 0.921875 -9.175781 0.960938 -9.21875 1.046875 -9.21875 L 1.734375 -9.21875 C 1.816406 -9.21875 1.867188 -9.1875 1.890625 -9.125 L 3.390625 -6.078125 C 3.398438 -6.066406 3.414062 -6.0625 3.4375 -6.0625 C 3.457031 -6.0625 3.472656 -6.066406 3.484375 -6.078125 Z M 4.96875 -9.125 "/></g></g></g><g fill="#ffffff" fill-opacity="1"><g transform="translate(137.49425, 58.253421)"><g><path d="M 2.734375 0.109375 C 2.097656 0.109375 1.59375 -0.0703125 1.21875 -0.4375 C 0.84375 -0.8125 0.65625 -1.300781 0.65625 -1.90625 L 0.65625 -4.734375 C 0.65625 -5.335938 0.84375 -5.828125 1.21875 -6.203125 C 1.601562 -6.578125 2.109375 -6.765625 2.734375 -6.765625 C 3.359375 -6.765625 3.859375 -6.578125 4.234375 -6.203125 C 4.617188 -5.828125 4.8125 -5.335938 4.8125 -4.734375 L 4.8125 -1.90625 C 4.8125 -1.300781 4.617188 -0.8125 4.234375 -0.4375 C 3.859375 -0.0703125 3.359375 0.109375 2.734375 0.109375 Z M 2.734375 -0.71875 C 3.066406 -0.71875 3.335938 -0.832031 3.546875 -1.0625 C 3.765625 -1.289062 3.875 -1.59375 3.875 -1.96875 L 3.875 -4.6875 C 3.875 -5.0625 3.765625 -5.363281 3.546875 -5.59375 C 3.335938 -5.832031 3.066406 -5.953125 2.734375 -5.953125 C 2.390625 -5.953125 2.113281 -5.832031 1.90625 -5.59375 C 1.695312 -5.363281 1.59375 -5.0625 1.59375 -4.6875 L 1.59375 -1.96875 C 1.59375 -1.59375 1.695312 -1.289062 1.90625 -1.0625 C 2.113281 -0.832031 2.390625 -0.71875 2.734375 -0.71875 Z M 2.734375 -0.71875 "/></g></g></g><g fill="#ffffff" fill-opacity="1"><g transform="translate(142.95978, 58.253421)"><g><path d="M 2.109375 0 C 2.023438 0 1.976562 -0.0390625 1.96875 -0.125 L 0.328125 -6.515625 L 0.3125 -6.578125 C 0.3125 -6.640625 0.351562 -6.671875 0.4375 -6.671875 L 1.203125 -6.671875 C 1.273438 -6.671875 1.320312 -6.628906 1.34375 -6.546875 L 2.46875 -1.546875 C 2.476562 -1.523438 2.488281 -1.515625 2.5 -1.515625 C 2.507812 -1.515625 2.519531 -1.523438 2.53125 -1.546875 L 3.65625 -6.546875 C 3.664062 -6.628906 3.710938 -6.671875 3.796875 -6.671875 L 4.5625 -6.65625 C 4.601562 -6.65625 4.632812 -6.640625 4.65625 -6.609375 C 4.675781 -6.585938 4.675781 -6.550781 4.65625 -6.5 L 3.046875 -0.125 C 3.035156 -0.0390625 2.984375 0 2.890625 0 Z M 2.109375 0 "/></g></g></g><g fill="#ffffff" fill-opacity="1"><g transform="translate(147.951191, 58.253421)"><g><path d="M 4.78125 -3.109375 C 4.78125 -3.023438 4.738281 -2.984375 4.65625 -2.984375 L 1.640625 -2.984375 C 1.609375 -2.984375 1.59375 -2.960938 1.59375 -2.921875 L 1.59375 -1.96875 C 1.59375 -1.59375 1.695312 -1.289062 1.90625 -1.0625 C 2.113281 -0.832031 2.382812 -0.71875 2.71875 -0.71875 C 3 -0.71875 3.238281 -0.800781 3.4375 -0.96875 C 3.632812 -1.132812 3.757812 -1.359375 3.8125 -1.640625 C 3.84375 -1.710938 3.894531 -1.75 3.96875 -1.75 L 4.625 -1.71875 C 4.65625 -1.71875 4.679688 -1.703125 4.703125 -1.671875 C 4.734375 -1.648438 4.742188 -1.617188 4.734375 -1.578125 C 4.671875 -1.054688 4.457031 -0.644531 4.09375 -0.34375 C 3.738281 -0.0390625 3.28125 0.109375 2.71875 0.109375 C 2.09375 0.109375 1.59375 -0.0703125 1.21875 -0.4375 C 0.84375 -0.8125 0.65625 -1.300781 0.65625 -1.90625 L 0.65625 -4.75 C 0.65625 -5.351562 0.84375 -5.835938 1.21875 -6.203125 C 1.59375 -6.578125 2.09375 -6.765625 2.71875 -6.765625 C 3.34375 -6.765625 3.84375 -6.578125 4.21875 -6.203125 C 4.59375 -5.835938 4.78125 -5.351562 4.78125 -4.75 Z M 2.71875 -5.953125 C 2.382812 -5.953125 2.113281 -5.832031 1.90625 -5.59375 C 1.695312 -5.363281 1.59375 -5.0625 1.59375 -4.6875 L 1.59375 -3.8125 C 1.59375 -3.769531 1.609375 -3.75 1.640625 -3.75 L 3.8125 -3.75 C 3.84375 -3.75 3.859375 -3.769531 3.859375 -3.8125 L 3.859375 -4.6875 C 3.859375 -5.0625 3.753906 -5.363281 3.546875 -5.59375 C 3.335938 -5.832031 3.0625 -5.953125 2.71875 -5.953125 Z M 2.71875 -5.953125 "/></g></g></g><g fill="#ffffff" fill-opacity="1"><g transform="translate(153.31136, 58.253421)"><g/></g></g><g fill="#ffffff" fill-opacity="1"><g transform="translate(155.945352, 58.253421)"><g><path d="M 2.46875 -0.015625 C 2.375 -0.015625 2.328125 -0.0546875 2.328125 -0.140625 L 2.328125 -4.078125 C 2.328125 -4.117188 2.320312 -4.144531 2.3125 -4.15625 L 0.484375 -9.0625 L 0.46875 -9.109375 C 0.46875 -9.179688 0.507812 -9.21875 0.59375 -9.21875 L 1.296875 -9.21875 C 1.378906 -9.21875 1.4375 -9.179688 1.46875 -9.109375 L 2.75 -5.25 C 2.757812 -5.238281 2.769531 -5.234375 2.78125 -5.234375 C 2.800781 -5.234375 2.816406 -5.238281 2.828125 -5.25 L 4.125 -9.109375 C 4.144531 -9.179688 4.195312 -9.21875 4.28125 -9.21875 L 4.984375 -9.21875 C 5.035156 -9.21875 5.070312 -9.203125 5.09375 -9.171875 C 5.113281 -9.140625 5.113281 -9.101562 5.09375 -9.0625 L 3.28125 -4.15625 C 3.269531 -4.144531 3.265625 -4.117188 3.265625 -4.078125 L 3.265625 -0.140625 C 3.265625 -0.0546875 3.222656 -0.015625 3.140625 -0.015625 Z M 2.46875 -0.015625 "/></g></g></g><g fill="#ffffff" fill-opacity="1"><g transform="translate(161.529405, 58.253421)"><g><path d="M 2.734375 0.109375 C 2.097656 0.109375 1.59375 -0.0703125 1.21875 -0.4375 C 0.84375 -0.8125 0.65625 -1.300781 0.65625 -1.90625 L 0.65625 -4.734375 C 0.65625 -5.335938 0.84375 -5.828125 1.21875 -6.203125 C 1.601562 -6.578125 2.109375 -6.765625 2.734375 -6.765625 C 3.359375 -6.765625 3.859375 -6.578125 4.234375 -6.203125 C 4.617188 -5.828125 4.8125 -5.335938 4.8125 -4.734375 L 4.8125 -1.90625 C 4.8125 -1.300781 4.617188 -0.8125 4.234375 -0.4375 C 3.859375 -0.0703125 3.359375 0.109375 2.734375 0.109375 Z M 2.734375 -0.71875 C 3.066406 -0.71875 3.335938 -0.832031 3.546875 -1.0625 C 3.765625 -1.289062 3.875 -1.59375 3.875 -1.96875 L 3.875 -4.6875 C 3.875 -5.0625 3.765625 -5.363281 3.546875 -5.59375 C 3.335938 -5.832031 3.066406 -5.953125 2.734375 -5.953125 C 2.390625 -5.953125 2.113281 -5.832031 1.90625 -5.59375 C 1.695312 -5.363281 1.59375 -5.0625 1.59375 -4.6875 L 1.59375 -1.96875 C 1.59375 -1.59375 1.695312 -1.289062 1.90625 -1.0625 C 2.113281 -0.832031 2.390625 -0.71875 2.734375 -0.71875 Z M 2.734375 -0.71875 "/></g></g></g><g fill="#ffffff" fill-opacity="1"><g transform="translate(166.994935, 58.253421)"><g><path d="M 3.84375 -6.53125 C 3.84375 -6.625 3.890625 -6.671875 3.984375 -6.671875 L 4.65625 -6.671875 C 4.738281 -6.671875 4.78125 -6.625 4.78125 -6.53125 L 4.78125 -0.125 C 4.78125 -0.0390625 4.738281 0 4.65625 0 L 3.984375 0 C 3.890625 0 3.84375 -0.0390625 3.84375 -0.125 L 3.84375 -0.578125 C 3.84375 -0.609375 3.835938 -0.625 3.828125 -0.625 C 3.816406 -0.625 3.800781 -0.613281 3.78125 -0.59375 C 3.507812 -0.132812 3.070312 0.09375 2.46875 0.09375 C 1.9375 0.09375 1.515625 -0.0664062 1.203125 -0.390625 C 0.890625 -0.710938 0.734375 -1.195312 0.734375 -1.84375 L 0.734375 -6.53125 C 0.734375 -6.625 0.78125 -6.671875 0.875 -6.671875 L 1.546875 -6.671875 C 1.628906 -6.671875 1.671875 -6.625 1.671875 -6.53125 L 1.671875 -2.0625 C 1.671875 -1.613281 1.757812 -1.273438 1.9375 -1.046875 C 2.125 -0.828125 2.390625 -0.71875 2.734375 -0.71875 C 3.078125 -0.71875 3.347656 -0.84375 3.546875 -1.09375 C 3.742188 -1.351562 3.84375 -1.703125 3.84375 -2.140625 Z M 3.84375 -6.53125 "/></g></g></g></svg>